<mxfile host="app.diagrams.net" agent="Mozilla/5.0 (Windows NT 10.0; Win64; x64; rv:135.0) Gecko/20100101 Firefox/135.0" version="26.0.16">
  <diagram id="C5RBs43oDa-KdzZeNtuy" name="Page-1">
    <mxGraphModel dx="1917" dy="851" grid="0" gridSize="8" guides="1" tooltips="1" connect="1" arrows="1" fold="1" page="0" pageScale="1" pageWidth="827" pageHeight="1169" math="0" shadow="0">
      <root>
        <mxCell id="WIyWlLk6GJQsqaUBKTNV-0" />
        <mxCell id="WIyWlLk6GJQsqaUBKTNV-1" parent="WIyWlLk6GJQsqaUBKTNV-0" />
        <mxCell id="Lo4sJkmsan4-eXwzAaha-4" style="edgeStyle=orthogonalEdgeStyle;rounded=0;orthogonalLoop=1;jettySize=auto;html=1;exitX=0.5;exitY=1;exitDx=0;exitDy=0;entryX=0.5;entryY=0;entryDx=0;entryDy=0;labelBackgroundColor=none;fontColor=default;" edge="1" parent="WIyWlLk6GJQsqaUBKTNV-1" source="WIyWlLk6GJQsqaUBKTNV-3" target="Lo4sJkmsan4-eXwzAaha-0">
          <mxGeometry relative="1" as="geometry" />
        </mxCell>
        <mxCell id="WIyWlLk6GJQsqaUBKTNV-3" value="Client Start" style="rounded=0;whiteSpace=wrap;html=1;fontSize=12;glass=0;strokeWidth=1;shadow=0;labelBackgroundColor=none;" parent="WIyWlLk6GJQsqaUBKTNV-1" vertex="1">
          <mxGeometry x="160" y="80" width="120" height="40" as="geometry" />
        </mxCell>
        <mxCell id="Lo4sJkmsan4-eXwzAaha-7" value="Multiplayer" style="edgeStyle=orthogonalEdgeStyle;rounded=0;orthogonalLoop=1;jettySize=auto;html=1;entryX=0;entryY=0.5;entryDx=0;entryDy=0;labelBackgroundColor=none;fontColor=default;" edge="1" parent="WIyWlLk6GJQsqaUBKTNV-1" source="Lo4sJkmsan4-eXwzAaha-0" target="Lo4sJkmsan4-eXwzAaha-5">
          <mxGeometry relative="1" as="geometry" />
        </mxCell>
        <mxCell id="Lo4sJkmsan4-eXwzAaha-10" value="Single player" style="edgeStyle=orthogonalEdgeStyle;rounded=0;orthogonalLoop=1;jettySize=auto;html=1;entryX=1;entryY=0.5;entryDx=0;entryDy=0;labelBackgroundColor=none;fontColor=default;" edge="1" parent="WIyWlLk6GJQsqaUBKTNV-1" source="Lo4sJkmsan4-eXwzAaha-0" target="Lo4sJkmsan4-eXwzAaha-9">
          <mxGeometry relative="1" as="geometry">
            <mxPoint x="260" y="220" as="targetPoint" />
          </mxGeometry>
        </mxCell>
        <mxCell id="Lo4sJkmsan4-eXwzAaha-0" value="Loading Screen" style="rhombus;whiteSpace=wrap;html=1;rounded=0;labelBackgroundColor=none;" vertex="1" parent="WIyWlLk6GJQsqaUBKTNV-1">
          <mxGeometry x="280" y="180" width="80" height="80" as="geometry" />
        </mxCell>
        <mxCell id="Lo4sJkmsan4-eXwzAaha-13" style="edgeStyle=orthogonalEdgeStyle;rounded=0;orthogonalLoop=1;jettySize=auto;html=1;entryX=0.5;entryY=0;entryDx=0;entryDy=0;labelBackgroundColor=none;fontColor=default;" edge="1" parent="WIyWlLk6GJQsqaUBKTNV-1" source="Lo4sJkmsan4-eXwzAaha-5" target="Lo4sJkmsan4-eXwzAaha-11">
          <mxGeometry relative="1" as="geometry" />
        </mxCell>
        <mxCell id="Lo4sJkmsan4-eXwzAaha-14" style="edgeStyle=orthogonalEdgeStyle;rounded=0;orthogonalLoop=1;jettySize=auto;html=1;entryX=0.5;entryY=0;entryDx=0;entryDy=0;labelBackgroundColor=none;fontColor=default;" edge="1" parent="WIyWlLk6GJQsqaUBKTNV-1" source="Lo4sJkmsan4-eXwzAaha-5" target="Lo4sJkmsan4-eXwzAaha-12">
          <mxGeometry relative="1" as="geometry" />
        </mxCell>
        <mxCell id="Lo4sJkmsan4-eXwzAaha-5" value="Load Multiplayer" style="rounded=0;whiteSpace=wrap;html=1;labelBackgroundColor=none;" vertex="1" parent="WIyWlLk6GJQsqaUBKTNV-1">
          <mxGeometry x="460" y="190" width="120" height="60" as="geometry" />
        </mxCell>
        <mxCell id="Lo4sJkmsan4-eXwzAaha-9" value="" style="rounded=0;whiteSpace=wrap;html=1;labelBackgroundColor=none;" vertex="1" parent="WIyWlLk6GJQsqaUBKTNV-1">
          <mxGeometry x="-30" y="206" width="120" height="60" as="geometry" />
        </mxCell>
        <mxCell id="Lo4sJkmsan4-eXwzAaha-18" style="edgeStyle=orthogonalEdgeStyle;rounded=0;orthogonalLoop=1;jettySize=auto;html=1;entryX=0.5;entryY=0;entryDx=0;entryDy=0;labelBackgroundColor=none;fontColor=default;" edge="1" parent="WIyWlLk6GJQsqaUBKTNV-1" source="Lo4sJkmsan4-eXwzAaha-11" target="Lo4sJkmsan4-eXwzAaha-20">
          <mxGeometry relative="1" as="geometry">
            <mxPoint x="520" y="370" as="targetPoint" />
          </mxGeometry>
        </mxCell>
        <mxCell id="Lo4sJkmsan4-eXwzAaha-11" value="input IP" style="shape=parallelogram;perimeter=parallelogramPerimeter;whiteSpace=wrap;html=1;fixedSize=1;rounded=0;labelBackgroundColor=none;" vertex="1" parent="WIyWlLk6GJQsqaUBKTNV-1">
          <mxGeometry x="380" y="280" width="120" height="60" as="geometry" />
        </mxCell>
        <mxCell id="Lo4sJkmsan4-eXwzAaha-19" style="edgeStyle=orthogonalEdgeStyle;rounded=0;orthogonalLoop=1;jettySize=auto;html=1;entryX=0.5;entryY=0;entryDx=0;entryDy=0;labelBackgroundColor=none;fontColor=default;" edge="1" parent="WIyWlLk6GJQsqaUBKTNV-1" source="Lo4sJkmsan4-eXwzAaha-12" target="Lo4sJkmsan4-eXwzAaha-20">
          <mxGeometry relative="1" as="geometry">
            <mxPoint x="520" y="370" as="targetPoint" />
          </mxGeometry>
        </mxCell>
        <mxCell id="Lo4sJkmsan4-eXwzAaha-12" value="input Port" style="shape=parallelogram;perimeter=parallelogramPerimeter;whiteSpace=wrap;html=1;fixedSize=1;rounded=0;labelBackgroundColor=none;" vertex="1" parent="WIyWlLk6GJQsqaUBKTNV-1">
          <mxGeometry x="520" y="280" width="120" height="60" as="geometry" />
        </mxCell>
        <mxCell id="Lo4sJkmsan4-eXwzAaha-27" value="Failed" style="edgeStyle=orthogonalEdgeStyle;rounded=0;orthogonalLoop=1;jettySize=auto;html=1;entryX=0.5;entryY=0;entryDx=0;entryDy=0;labelBackgroundColor=none;fontColor=default;" edge="1" parent="WIyWlLk6GJQsqaUBKTNV-1" source="Lo4sJkmsan4-eXwzAaha-20" target="Lo4sJkmsan4-eXwzAaha-24">
          <mxGeometry relative="1" as="geometry" />
        </mxCell>
        <mxCell id="Lo4sJkmsan4-eXwzAaha-31" style="edgeStyle=orthogonalEdgeStyle;rounded=0;orthogonalLoop=1;jettySize=auto;html=1;labelBackgroundColor=none;fontColor=default;" edge="1" parent="WIyWlLk6GJQsqaUBKTNV-1" source="Lo4sJkmsan4-eXwzAaha-20" target="Lo4sJkmsan4-eXwzAaha-30">
          <mxGeometry relative="1" as="geometry" />
        </mxCell>
        <mxCell id="Lo4sJkmsan4-eXwzAaha-20" value="Connect To Server" style="rhombus;whiteSpace=wrap;html=1;rounded=0;labelBackgroundColor=none;" vertex="1" parent="WIyWlLk6GJQsqaUBKTNV-1">
          <mxGeometry x="470" y="400" width="80" height="80" as="geometry" />
        </mxCell>
        <mxCell id="Lo4sJkmsan4-eXwzAaha-22" value="Close Program" style="rounded=0;whiteSpace=wrap;html=1;labelBackgroundColor=none;" vertex="1" parent="WIyWlLk6GJQsqaUBKTNV-1">
          <mxGeometry x="230" y="310" width="120" height="60" as="geometry" />
        </mxCell>
        <mxCell id="Lo4sJkmsan4-eXwzAaha-23" value="Quit" style="edgeStyle=orthogonalEdgeStyle;rounded=0;orthogonalLoop=1;jettySize=auto;html=1;entryX=0.5;entryY=0;entryDx=0;entryDy=0;labelBackgroundColor=none;fontColor=default;" edge="1" parent="WIyWlLk6GJQsqaUBKTNV-1" target="Lo4sJkmsan4-eXwzAaha-22">
          <mxGeometry relative="1" as="geometry">
            <mxPoint x="305.36" y="250" as="sourcePoint" />
            <mxPoint x="274.6400000000001" y="297.65999999999997" as="targetPoint" />
          </mxGeometry>
        </mxCell>
        <mxCell id="Lo4sJkmsan4-eXwzAaha-28" value="&lt;div&gt;No&lt;/div&gt;" style="edgeStyle=orthogonalEdgeStyle;rounded=0;orthogonalLoop=1;jettySize=auto;html=1;entryX=0.5;entryY=0;entryDx=0;entryDy=0;labelBackgroundColor=none;fontColor=default;" edge="1" parent="WIyWlLk6GJQsqaUBKTNV-1" source="Lo4sJkmsan4-eXwzAaha-24" target="Lo4sJkmsan4-eXwzAaha-5">
          <mxGeometry relative="1" as="geometry">
            <Array as="points">
              <mxPoint x="710" y="515" />
              <mxPoint x="710" y="170" />
              <mxPoint x="520" y="170" />
            </Array>
          </mxGeometry>
        </mxCell>
        <mxCell id="Lo4sJkmsan4-eXwzAaha-29" value="Yes" style="edgeStyle=orthogonalEdgeStyle;rounded=0;orthogonalLoop=1;jettySize=auto;html=1;exitX=0.5;exitY=1;exitDx=0;exitDy=0;entryX=0.5;entryY=0;entryDx=0;entryDy=0;labelBackgroundColor=none;fontColor=default;" edge="1" parent="WIyWlLk6GJQsqaUBKTNV-1" source="Lo4sJkmsan4-eXwzAaha-24" target="Lo4sJkmsan4-eXwzAaha-0">
          <mxGeometry relative="1" as="geometry">
            <Array as="points">
              <mxPoint x="645" y="590" />
              <mxPoint x="770" y="590" />
              <mxPoint x="770" y="160" />
              <mxPoint x="320" y="160" />
            </Array>
          </mxGeometry>
        </mxCell>
        <mxCell id="Lo4sJkmsan4-eXwzAaha-24" value="Ask if Go back to main menu" style="rhombus;whiteSpace=wrap;html=1;rounded=0;labelBackgroundColor=none;" vertex="1" parent="WIyWlLk6GJQsqaUBKTNV-1">
          <mxGeometry x="590" y="460" width="110" height="110" as="geometry" />
        </mxCell>
        <mxCell id="Lo4sJkmsan4-eXwzAaha-34" style="edgeStyle=orthogonalEdgeStyle;rounded=0;orthogonalLoop=1;jettySize=auto;html=1;exitX=0.5;exitY=1;exitDx=0;exitDy=0;entryX=0.5;entryY=0;entryDx=0;entryDy=0;labelBackgroundColor=none;fontColor=default;" edge="1" parent="WIyWlLk6GJQsqaUBKTNV-1" source="Lo4sJkmsan4-eXwzAaha-30" target="Lo4sJkmsan4-eXwzAaha-32">
          <mxGeometry relative="1" as="geometry" />
        </mxCell>
        <mxCell id="Lo4sJkmsan4-eXwzAaha-30" value="&lt;div&gt;Send Username&lt;/div&gt;&lt;div&gt;and ID&lt;/div&gt;" style="rounded=0;whiteSpace=wrap;html=1;labelBackgroundColor=none;" vertex="1" parent="WIyWlLk6GJQsqaUBKTNV-1">
          <mxGeometry x="450" y="525" width="120" height="60" as="geometry" />
        </mxCell>
        <mxCell id="Lo4sJkmsan4-eXwzAaha-36" style="edgeStyle=orthogonalEdgeStyle;rounded=0;orthogonalLoop=1;jettySize=auto;html=1;entryX=0.5;entryY=0;entryDx=0;entryDy=0;labelBackgroundColor=none;fontColor=default;" edge="1" parent="WIyWlLk6GJQsqaUBKTNV-1" source="Lo4sJkmsan4-eXwzAaha-32" target="Lo4sJkmsan4-eXwzAaha-35">
          <mxGeometry relative="1" as="geometry" />
        </mxCell>
        <mxCell id="Lo4sJkmsan4-eXwzAaha-32" value="Receive Information For Visible Tiles And Entities" style="rounded=0;whiteSpace=wrap;html=1;labelBackgroundColor=none;" vertex="1" parent="WIyWlLk6GJQsqaUBKTNV-1">
          <mxGeometry x="450" y="630" width="120" height="60" as="geometry" />
        </mxCell>
        <mxCell id="Lo4sJkmsan4-eXwzAaha-41" style="edgeStyle=orthogonalEdgeStyle;orthogonalLoop=1;jettySize=auto;html=1;entryX=0.5;entryY=0;entryDx=0;entryDy=0;labelBackgroundColor=none;fontColor=default;rounded=0;" edge="1" parent="WIyWlLk6GJQsqaUBKTNV-1" source="Lo4sJkmsan4-eXwzAaha-35" target="Lo4sJkmsan4-eXwzAaha-40">
          <mxGeometry relative="1" as="geometry" />
        </mxCell>
        <mxCell id="Lo4sJkmsan4-eXwzAaha-35" value="Draw Tiles" style="rounded=0;whiteSpace=wrap;html=1;labelBackgroundColor=none;" vertex="1" parent="WIyWlLk6GJQsqaUBKTNV-1">
          <mxGeometry x="450" y="740" width="120" height="60" as="geometry" />
        </mxCell>
        <mxCell id="Lo4sJkmsan4-eXwzAaha-59" style="edgeStyle=orthogonalEdgeStyle;orthogonalLoop=1;jettySize=auto;html=1;entryX=0.5;entryY=0;entryDx=0;entryDy=0;" edge="1" parent="WIyWlLk6GJQsqaUBKTNV-1" source="Lo4sJkmsan4-eXwzAaha-40" target="Lo4sJkmsan4-eXwzAaha-58">
          <mxGeometry relative="1" as="geometry" />
        </mxCell>
        <mxCell id="Lo4sJkmsan4-eXwzAaha-40" value="Select Tile" style="shape=parallelogram;perimeter=parallelogramPerimeter;whiteSpace=wrap;html=1;fixedSize=1;labelBackgroundColor=none;rounded=0;" vertex="1" parent="WIyWlLk6GJQsqaUBKTNV-1">
          <mxGeometry x="450" y="846" width="120" height="60" as="geometry" />
        </mxCell>
        <mxCell id="Lo4sJkmsan4-eXwzAaha-47" style="edgeStyle=orthogonalEdgeStyle;orthogonalLoop=1;jettySize=auto;html=1;entryX=0.5;entryY=0;entryDx=0;entryDy=0;" edge="1" parent="WIyWlLk6GJQsqaUBKTNV-1" source="Lo4sJkmsan4-eXwzAaha-44" target="Lo4sJkmsan4-eXwzAaha-46">
          <mxGeometry relative="1" as="geometry" />
        </mxCell>
        <mxCell id="Lo4sJkmsan4-eXwzAaha-44" value="Display Tile Information" style="shape=parallelogram;perimeter=parallelogramPerimeter;whiteSpace=wrap;html=1;fixedSize=1;labelBackgroundColor=none;rounded=0;" vertex="1" parent="WIyWlLk6GJQsqaUBKTNV-1">
          <mxGeometry x="80" y="1047" width="120" height="60" as="geometry" />
        </mxCell>
        <mxCell id="Lo4sJkmsan4-eXwzAaha-49" value="Yes" style="edgeStyle=orthogonalEdgeStyle;orthogonalLoop=1;jettySize=auto;html=1;" edge="1" parent="WIyWlLk6GJQsqaUBKTNV-1" source="Lo4sJkmsan4-eXwzAaha-46" target="Lo4sJkmsan4-eXwzAaha-48">
          <mxGeometry relative="1" as="geometry" />
        </mxCell>
        <mxCell id="Lo4sJkmsan4-eXwzAaha-51" style="edgeStyle=orthogonalEdgeStyle;orthogonalLoop=1;jettySize=auto;html=1;entryX=0.5;entryY=0;entryDx=0;entryDy=0;" edge="1" parent="WIyWlLk6GJQsqaUBKTNV-1" source="Lo4sJkmsan4-eXwzAaha-46" target="Lo4sJkmsan4-eXwzAaha-50">
          <mxGeometry relative="1" as="geometry" />
        </mxCell>
        <mxCell id="Lo4sJkmsan4-eXwzAaha-46" value="Is entity on tile?" style="rhombus;whiteSpace=wrap;html=1;" vertex="1" parent="WIyWlLk6GJQsqaUBKTNV-1">
          <mxGeometry x="24" y="1151" width="80" height="80" as="geometry" />
        </mxCell>
        <mxCell id="Lo4sJkmsan4-eXwzAaha-53" style="edgeStyle=orthogonalEdgeStyle;orthogonalLoop=1;jettySize=auto;html=1;entryX=0.5;entryY=0;entryDx=0;entryDy=0;" edge="1" parent="WIyWlLk6GJQsqaUBKTNV-1" source="Lo4sJkmsan4-eXwzAaha-48" target="Lo4sJkmsan4-eXwzAaha-52">
          <mxGeometry relative="1" as="geometry" />
        </mxCell>
        <mxCell id="Lo4sJkmsan4-eXwzAaha-48" value="Display Entity Information" style="shape=parallelogram;perimeter=parallelogramPerimeter;whiteSpace=wrap;html=1;fixedSize=1;" vertex="1" parent="WIyWlLk6GJQsqaUBKTNV-1">
          <mxGeometry x="166" y="1159" width="120" height="60" as="geometry" />
        </mxCell>
        <mxCell id="Lo4sJkmsan4-eXwzAaha-63" style="edgeStyle=orthogonalEdgeStyle;orthogonalLoop=1;jettySize=auto;html=1;entryX=0.5;entryY=0;entryDx=0;entryDy=0;" edge="1" parent="WIyWlLk6GJQsqaUBKTNV-1" source="Lo4sJkmsan4-eXwzAaha-50" target="Lo4sJkmsan4-eXwzAaha-62">
          <mxGeometry relative="1" as="geometry" />
        </mxCell>
        <mxCell id="Lo4sJkmsan4-eXwzAaha-50" value="Display Tile Options" style="shape=parallelogram;perimeter=parallelogramPerimeter;whiteSpace=wrap;html=1;fixedSize=1;" vertex="1" parent="WIyWlLk6GJQsqaUBKTNV-1">
          <mxGeometry x="42" y="1352" width="137" height="60" as="geometry" />
        </mxCell>
        <mxCell id="Lo4sJkmsan4-eXwzAaha-54" style="edgeStyle=orthogonalEdgeStyle;orthogonalLoop=1;jettySize=auto;html=1;entryX=0.5;entryY=0;entryDx=0;entryDy=0;" edge="1" parent="WIyWlLk6GJQsqaUBKTNV-1" source="Lo4sJkmsan4-eXwzAaha-52" target="Lo4sJkmsan4-eXwzAaha-50">
          <mxGeometry relative="1" as="geometry" />
        </mxCell>
        <mxCell id="Lo4sJkmsan4-eXwzAaha-52" value="Display Entity Options" style="shape=parallelogram;perimeter=parallelogramPerimeter;whiteSpace=wrap;html=1;fixedSize=1;" vertex="1" parent="WIyWlLk6GJQsqaUBKTNV-1">
          <mxGeometry x="144" y="1244" width="142" height="60" as="geometry" />
        </mxCell>
        <mxCell id="Lo4sJkmsan4-eXwzAaha-60" value="Yes" style="edgeStyle=orthogonalEdgeStyle;orthogonalLoop=1;jettySize=auto;html=1;entryX=0.5;entryY=0;entryDx=0;entryDy=0;" edge="1" parent="WIyWlLk6GJQsqaUBKTNV-1" source="Lo4sJkmsan4-eXwzAaha-58" target="Lo4sJkmsan4-eXwzAaha-44">
          <mxGeometry relative="1" as="geometry" />
        </mxCell>
        <mxCell id="Lo4sJkmsan4-eXwzAaha-87" style="edgeStyle=orthogonalEdgeStyle;orthogonalLoop=1;jettySize=auto;html=1;entryX=0.5;entryY=0;entryDx=0;entryDy=0;" edge="1" parent="WIyWlLk6GJQsqaUBKTNV-1" source="Lo4sJkmsan4-eXwzAaha-58" target="Lo4sJkmsan4-eXwzAaha-86">
          <mxGeometry relative="1" as="geometry" />
        </mxCell>
        <mxCell id="Lo4sJkmsan4-eXwzAaha-58" value="If selected Tile" style="rhombus;whiteSpace=wrap;html=1;" vertex="1" parent="WIyWlLk6GJQsqaUBKTNV-1">
          <mxGeometry x="470" y="930" width="90" height="99" as="geometry" />
        </mxCell>
        <mxCell id="Lo4sJkmsan4-eXwzAaha-65" style="edgeStyle=orthogonalEdgeStyle;orthogonalLoop=1;jettySize=auto;html=1;entryX=0.5;entryY=0;entryDx=0;entryDy=0;" edge="1" parent="WIyWlLk6GJQsqaUBKTNV-1" source="Lo4sJkmsan4-eXwzAaha-62" target="Lo4sJkmsan4-eXwzAaha-64">
          <mxGeometry relative="1" as="geometry" />
        </mxCell>
        <mxCell id="Lo4sJkmsan4-eXwzAaha-62" value="Select Option" style="shape=parallelogram;perimeter=parallelogramPerimeter;whiteSpace=wrap;html=1;fixedSize=1;" vertex="1" parent="WIyWlLk6GJQsqaUBKTNV-1">
          <mxGeometry x="35" y="1446" width="120" height="60" as="geometry" />
        </mxCell>
        <mxCell id="Lo4sJkmsan4-eXwzAaha-70" value="Yes" style="edgeStyle=orthogonalEdgeStyle;orthogonalLoop=1;jettySize=auto;html=1;entryX=0;entryY=0.5;entryDx=0;entryDy=0;" edge="1" parent="WIyWlLk6GJQsqaUBKTNV-1" source="Lo4sJkmsan4-eXwzAaha-64" target="Lo4sJkmsan4-eXwzAaha-69">
          <mxGeometry relative="1" as="geometry" />
        </mxCell>
        <mxCell id="Lo4sJkmsan4-eXwzAaha-82" value="No" style="edgeStyle=orthogonalEdgeStyle;orthogonalLoop=1;jettySize=auto;html=1;exitX=0.5;exitY=1;exitDx=0;exitDy=0;entryX=0.5;entryY=0;entryDx=0;entryDy=0;" edge="1" parent="WIyWlLk6GJQsqaUBKTNV-1" source="Lo4sJkmsan4-eXwzAaha-64" target="Lo4sJkmsan4-eXwzAaha-80">
          <mxGeometry relative="1" as="geometry">
            <mxPoint x="316" y="2012" as="targetPoint" />
            <Array as="points">
              <mxPoint x="149" y="1623" />
              <mxPoint x="149" y="1999" />
              <mxPoint x="369" y="1999" />
            </Array>
          </mxGeometry>
        </mxCell>
        <mxCell id="Lo4sJkmsan4-eXwzAaha-64" value="Selected Option" style="rhombus;whiteSpace=wrap;html=1;" vertex="1" parent="WIyWlLk6GJQsqaUBKTNV-1">
          <mxGeometry x="112" y="1543" width="80" height="80" as="geometry" />
        </mxCell>
        <mxCell id="Lo4sJkmsan4-eXwzAaha-72" style="edgeStyle=orthogonalEdgeStyle;orthogonalLoop=1;jettySize=auto;html=1;entryX=0.5;entryY=0;entryDx=0;entryDy=0;" edge="1" parent="WIyWlLk6GJQsqaUBKTNV-1" source="Lo4sJkmsan4-eXwzAaha-69" target="Lo4sJkmsan4-eXwzAaha-71">
          <mxGeometry relative="1" as="geometry" />
        </mxCell>
        <mxCell id="Lo4sJkmsan4-eXwzAaha-69" value="Display Option information" style="shape=parallelogram;perimeter=parallelogramPerimeter;whiteSpace=wrap;html=1;fixedSize=1;" vertex="1" parent="WIyWlLk6GJQsqaUBKTNV-1">
          <mxGeometry x="270" y="1560" width="120" height="60" as="geometry" />
        </mxCell>
        <mxCell id="Lo4sJkmsan4-eXwzAaha-75" style="edgeStyle=orthogonalEdgeStyle;orthogonalLoop=1;jettySize=auto;html=1;entryX=0.5;entryY=0;entryDx=0;entryDy=0;" edge="1" parent="WIyWlLk6GJQsqaUBKTNV-1" source="Lo4sJkmsan4-eXwzAaha-71" target="Lo4sJkmsan4-eXwzAaha-74">
          <mxGeometry relative="1" as="geometry" />
        </mxCell>
        <mxCell id="Lo4sJkmsan4-eXwzAaha-71" value="Enter Details" style="shape=parallelogram;perimeter=parallelogramPerimeter;whiteSpace=wrap;html=1;fixedSize=1;" vertex="1" parent="WIyWlLk6GJQsqaUBKTNV-1">
          <mxGeometry x="261" y="1651" width="120" height="60" as="geometry" />
        </mxCell>
        <mxCell id="Lo4sJkmsan4-eXwzAaha-76" value="Cancel" style="edgeStyle=orthogonalEdgeStyle;orthogonalLoop=1;jettySize=auto;html=1;exitX=1;exitY=0.5;exitDx=0;exitDy=0;entryX=0.5;entryY=0;entryDx=0;entryDy=0;" edge="1" parent="WIyWlLk6GJQsqaUBKTNV-1" source="Lo4sJkmsan4-eXwzAaha-74" target="Lo4sJkmsan4-eXwzAaha-46">
          <mxGeometry relative="1" as="geometry">
            <Array as="points">
              <mxPoint x="404" y="1781" />
              <mxPoint x="404" y="1131" />
              <mxPoint x="64" y="1131" />
            </Array>
          </mxGeometry>
        </mxCell>
        <mxCell id="Lo4sJkmsan4-eXwzAaha-78" style="edgeStyle=orthogonalEdgeStyle;orthogonalLoop=1;jettySize=auto;html=1;entryX=0.5;entryY=0;entryDx=0;entryDy=0;" edge="1" parent="WIyWlLk6GJQsqaUBKTNV-1" source="Lo4sJkmsan4-eXwzAaha-74" target="Lo4sJkmsan4-eXwzAaha-77">
          <mxGeometry relative="1" as="geometry" />
        </mxCell>
        <mxCell id="Lo4sJkmsan4-eXwzAaha-74" value="Confirm/Cancel" style="rhombus;whiteSpace=wrap;html=1;" vertex="1" parent="WIyWlLk6GJQsqaUBKTNV-1">
          <mxGeometry x="274" y="1741" width="80" height="80" as="geometry" />
        </mxCell>
        <mxCell id="Lo4sJkmsan4-eXwzAaha-81" style="edgeStyle=orthogonalEdgeStyle;orthogonalLoop=1;jettySize=auto;html=1;entryX=0.5;entryY=0;entryDx=0;entryDy=0;" edge="1" parent="WIyWlLk6GJQsqaUBKTNV-1" source="Lo4sJkmsan4-eXwzAaha-77" target="Lo4sJkmsan4-eXwzAaha-80">
          <mxGeometry relative="1" as="geometry" />
        </mxCell>
        <mxCell id="Lo4sJkmsan4-eXwzAaha-77" value="Send Option To Data" style="rounded=0;whiteSpace=wrap;html=1;" vertex="1" parent="WIyWlLk6GJQsqaUBKTNV-1">
          <mxGeometry x="224" y="1853" width="120" height="60" as="geometry" />
        </mxCell>
        <mxCell id="Lo4sJkmsan4-eXwzAaha-85" style="edgeStyle=orthogonalEdgeStyle;orthogonalLoop=1;jettySize=auto;html=1;entryX=0.5;entryY=0;entryDx=0;entryDy=0;" edge="1" parent="WIyWlLk6GJQsqaUBKTNV-1" source="Lo4sJkmsan4-eXwzAaha-80" target="Lo4sJkmsan4-eXwzAaha-32">
          <mxGeometry relative="1" as="geometry">
            <Array as="points">
              <mxPoint x="884" y="2088" />
              <mxPoint x="884" y="1374" />
              <mxPoint x="700" y="1374" />
              <mxPoint x="700" y="610" />
              <mxPoint x="510" y="610" />
            </Array>
          </mxGeometry>
        </mxCell>
        <mxCell id="Lo4sJkmsan4-eXwzAaha-80" value="Update Position &amp;amp; Send Visible selection to data" style="rounded=0;whiteSpace=wrap;html=1;" vertex="1" parent="WIyWlLk6GJQsqaUBKTNV-1">
          <mxGeometry x="309" y="2058" width="120" height="60" as="geometry" />
        </mxCell>
        <mxCell id="Lo4sJkmsan4-eXwzAaha-88" style="edgeStyle=orthogonalEdgeStyle;orthogonalLoop=1;jettySize=auto;html=1;entryX=0.5;entryY=0;entryDx=0;entryDy=0;" edge="1" parent="WIyWlLk6GJQsqaUBKTNV-1" source="Lo4sJkmsan4-eXwzAaha-86" target="Lo4sJkmsan4-eXwzAaha-80">
          <mxGeometry relative="1" as="geometry">
            <mxPoint x="404.222127278646" y="2021.2222086588545" as="targetPoint" />
            <Array as="points">
              <mxPoint x="477" y="2031" />
              <mxPoint x="369" y="2031" />
            </Array>
          </mxGeometry>
        </mxCell>
        <mxCell id="Lo4sJkmsan4-eXwzAaha-86" value="Draw UI information" style="shape=parallelogram;perimeter=parallelogramPerimeter;whiteSpace=wrap;html=1;fixedSize=1;" vertex="1" parent="WIyWlLk6GJQsqaUBKTNV-1">
          <mxGeometry x="430" y="1055" width="143" height="69" as="geometry" />
        </mxCell>
      </root>
    </mxGraphModel>
  </diagram>
</mxfile>
